<svg width="24" height="24" viewBox="0 0 24 24" fill="none" xmlns="http://www.w3.org/2000/svg">
<path fill-rule="evenodd" clip-rule="evenodd" d="M0.48 0C0.214903 0 0 0.214903 0 0.48V2.26312C2.02057 1.12781 5.24611 0.419112 10.2501 0.419112H13.0183C18.441 0.419112 21.8811 1.23588 24 2.48577V0.48C24 0.214903 23.7851 0 23.52 0H0.48ZM24 7.97739H17.4662C17.3729 7.13758 16.8752 5.52017 11.8675 5.52017H11.5564C6.92195 5.52017 6.45539 6.32887 6.45539 7.23089V7.26199C6.45539 8.19511 7.13968 8.94161 11.4942 9.03492L15.6622 9.12823C19.3271 9.23184 22.0592 9.64817 24 10.4356V7.97739ZM24 22.6777C22.8344 23.2451 21.3398 23.7003 19.4329 24H23.52C23.7851 24 24 23.7851 24 23.52V22.6777ZM5.22235 24C2.93497 23.6215 1.24527 23.0002 0 22.248V23.52C0 23.7851 0.214903 24 0.48 24H5.22235ZM0 15.8778H6.29987C6.39318 17.122 7.04637 19.1437 12.0852 19.1437H12.3652C17.3107 19.1437 18.0261 18.0862 18.0261 16.9664V16.9353C18.0261 15.7534 17.4351 15.0069 12.5829 14.8514L8.29053 14.727C4.40641 14.6191 1.75616 13.9673 0 12.9721V15.8778Z" fill="black"/>
</svg>
