<svg width="25" height="23" viewBox="0 0 25 23" fill="none" xmlns="http://www.w3.org/2000/svg">
<path d="M23.3131 0.40033L13.9375 7.33762L15.6809 3.24925L23.3131 0.40033Z" fill="#E17726" stroke="#E17726" stroke-width="0.25" stroke-linecap="round" stroke-linejoin="round"/>
<path d="M1.68698 0.40033L10.9791 7.40237L9.31917 3.24924L1.68698 0.40033Z" fill="#E27625" stroke="#E27625" stroke-width="0.25" stroke-linecap="round" stroke-linejoin="round"/>
<path d="M19.9373 16.4855L17.4427 20.2964L22.7843 21.7671L24.3144 16.5688L19.9373 16.4855Z" fill="#E27625" stroke="#E27625" stroke-width="0.25" stroke-linecap="round" stroke-linejoin="round"/>
<path d="M0.694656 16.5688L2.21552 21.7671L7.54785 20.2964L5.06251 16.4855L0.694656 16.5688Z" fill="#E27625" stroke="#E27625" stroke-width="0.25" stroke-linecap="round" stroke-linejoin="round"/>
<path d="M7.26034 10.0477L5.7766 12.2862L11.0625 12.5267L10.8864 6.8381L7.26034 10.0477Z" fill="#E27625" stroke="#E27625" stroke-width="0.25" stroke-linecap="round" stroke-linejoin="round"/>
<path d="M17.7394 10.0479L14.0579 6.77353L13.9373 12.5269L19.2232 12.2864L17.7394 10.0479Z" fill="#E27625" stroke="#E27625" stroke-width="0.25" stroke-linecap="round" stroke-linejoin="round"/>
<path d="M7.54794 20.2964L10.7473 18.7517L7.99309 16.6057L7.54794 20.2964Z" fill="#E27625" stroke="#E27625" stroke-width="0.25" stroke-linecap="round" stroke-linejoin="round"/>
<path d="M14.2527 18.7517L17.4428 20.2964L17.0069 16.6057L14.2527 18.7517Z" fill="#E27625" stroke="#E27625" stroke-width="0.25" stroke-linecap="round" stroke-linejoin="round"/>
<path d="M17.4428 20.2965L14.2527 18.7519L14.5123 20.8238L14.4845 21.7025L17.4428 20.2965Z" fill="#D5BFB2" stroke="#D5BFB2" stroke-width="0.25" stroke-linecap="round" stroke-linejoin="round"/>
<path d="M7.54794 20.2965L10.5155 21.7025L10.497 20.8238L10.7473 18.7519L7.54794 20.2965Z" fill="#D5BFB2" stroke="#D5BFB2" stroke-width="0.25" stroke-linecap="round" stroke-linejoin="round"/>
<path d="M10.5711 15.2369L7.91881 14.4599L9.79206 13.5997L10.5711 15.2369Z" fill="#233447" stroke="#233447" stroke-width="0.25" stroke-linecap="round" stroke-linejoin="round"/>
<path d="M14.4289 15.2369L15.2079 13.5997L17.0904 14.4599L14.4289 15.2369Z" fill="#233447" stroke="#233447" stroke-width="0.25" stroke-linecap="round" stroke-linejoin="round"/>
<path d="M7.54783 20.2964L8.01154 16.4855L5.06253 16.5688L7.54783 20.2964Z" fill="#CC6228" stroke="#CC6228" stroke-width="0.25" stroke-linecap="round" stroke-linejoin="round"/>
<path d="M16.9883 16.4855L17.4427 20.2964L19.9373 16.5688L16.9883 16.4855Z" fill="#CC6228" stroke="#CC6228" stroke-width="0.25" stroke-linecap="round" stroke-linejoin="round"/>
<path d="M19.2232 12.2862L13.9373 12.5267L14.4288 15.2369L15.2078 13.5997L17.0903 14.4599L19.2232 12.2862Z" fill="#CC6228" stroke="#CC6228" stroke-width="0.25" stroke-linecap="round" stroke-linejoin="round"/>
<path d="M7.91879 14.4599L9.79204 13.5997L10.5711 15.2369L11.0625 12.5267L5.7766 12.2862L7.91879 14.4599Z" fill="#CC6228" stroke="#CC6228" stroke-width="0.25" stroke-linecap="round" stroke-linejoin="round"/>
<path d="M5.77676 12.2862L7.99317 16.6058L7.91893 14.4599L5.77676 12.2862Z" fill="#E27525" stroke="#E27525" stroke-width="0.25" stroke-linecap="round" stroke-linejoin="round"/>
<path d="M17.0905 14.4599L17.007 16.6058L19.2234 12.2862L17.0905 14.4599Z" fill="#E27525" stroke="#E27525" stroke-width="0.25" stroke-linecap="round" stroke-linejoin="round"/>
<path d="M11.0628 12.5267L10.5712 15.2369L11.1925 18.4373L11.3317 14.2194L11.0628 12.5267Z" fill="#E27525" stroke="#E27525" stroke-width="0.25" stroke-linecap="round" stroke-linejoin="round"/>
<path d="M13.9374 12.5267L13.6777 14.2102L13.8076 18.4373L14.4289 15.2369L13.9374 12.5267Z" fill="#E27525" stroke="#E27525" stroke-width="0.25" stroke-linecap="round" stroke-linejoin="round"/>
<path d="M14.4289 15.2369L13.8075 18.4372L14.2527 18.7517L17.007 16.6058L17.0904 14.4599L14.4289 15.2369Z" fill="#F5841F" stroke="#F5841F" stroke-width="0.25" stroke-linecap="round" stroke-linejoin="round"/>
<path d="M7.91881 14.4599L7.99305 16.6058L10.7472 18.7517L11.1924 18.4372L10.5711 15.2369L7.91881 14.4599Z" fill="#F5841F" stroke="#F5841F" stroke-width="0.25" stroke-linecap="round" stroke-linejoin="round"/>
<path d="M14.4846 21.7025L14.5124 20.8237L14.2713 20.6202H10.7288L10.497 20.8237L10.5155 21.7025L7.54794 20.2965L8.58658 21.1475L10.6917 22.5997H14.2991L16.4135 21.1475L17.4428 20.2965L14.4846 21.7025Z" fill="#C0AC9D" stroke="#C0AC9D" stroke-width="0.25" stroke-linecap="round" stroke-linejoin="round"/>
<path d="M14.2526 18.7517L13.8075 18.4373H11.1923L10.7473 18.7517L10.4969 20.8237L10.7287 20.6202H14.2712L14.5123 20.8237L14.2526 18.7517Z" fill="#161616" stroke="#161616" stroke-width="0.25" stroke-linecap="round" stroke-linejoin="round"/>
<path d="M23.7117 7.79084L24.5 3.96147L23.3129 0.40033L14.2527 7.10641L17.7395 10.0478L22.6638 11.4815L23.7488 10.2143L23.2759 9.87203L24.027 9.1876L23.4521 8.7436L24.2032 8.1701L23.7117 7.79084Z" fill="#763E1A" stroke="#763E1A" stroke-width="0.25" stroke-linecap="round" stroke-linejoin="round"/>
<path d="M0.5 3.96147L1.29753 7.79084L0.787484 8.1701L1.54791 8.7436L0.972953 9.1876L1.72411 9.87203L1.25116 10.2143L2.33617 11.4815L7.26047 10.0478L10.7473 7.10641L1.68702 0.40033L0.5 3.96147Z" fill="#763E1A" stroke="#763E1A" stroke-width="0.25" stroke-linecap="round" stroke-linejoin="round"/>
<path d="M22.6639 11.4815L17.7396 10.0479L19.2234 12.2863L17.007 16.6059L19.9375 16.5689H24.3146L22.6639 11.4815Z" fill="#F5841F" stroke="#F5841F" stroke-width="0.25" stroke-linecap="round" stroke-linejoin="round"/>
<path d="M7.26032 10.0479L2.33608 11.4815L0.694656 16.5689H5.06251L7.99293 16.6059L5.77658 12.2863L7.26032 10.0479Z" fill="#F5841F" stroke="#F5841F" stroke-width="0.25" stroke-linecap="round" stroke-linejoin="round"/>
<path d="M13.9374 12.5267L14.2527 7.10631L15.6808 3.24921H9.31914L10.7472 7.10631L11.0625 12.5267L11.1831 14.2286L11.1924 18.4373H13.8075L13.8168 14.2286L13.9374 12.5267Z" fill="#F5841F" stroke="#F5841F" stroke-width="0.25" stroke-linecap="round" stroke-linejoin="round"/>
</svg>
