<svg width="17" height="25" viewBox="0 0 17 25" fill="none" xmlns="http://www.w3.org/2000/svg">
<g clip-path="url(#clip0_605_2676)">
<path d="M3.31877 0.867816C3.31877 0.664677 3.48339 0.5 3.68645 0.5H5.36552C5.56859 0.5 5.7332 0.664677 5.7332 0.867816V6.42184H3.31877V0.867816Z" fill="#FCFCFC"/>
<path d="M11.2116 0.867816C11.2116 0.664677 11.3762 0.5 11.5793 0.5H13.2584C13.4615 0.5 13.6261 0.664677 13.6261 0.867816V6.42184H11.2116V0.867816Z" fill="#FCFCFC"/>
<path d="M0.224136 7.39172C0.224136 6.85747 0.65703 6.42444 1.19103 6.42444H15.8032C16.3373 6.42444 16.7702 6.85747 16.7702 7.39172V12.2098C16.7702 16.7806 13.0662 20.4859 8.49712 20.4859C3.92809 20.4859 0.224136 16.7806 0.224136 12.2098V7.39172Z" fill="url(#paint0_linear_605_2676)"/>
<path d="M5.73544 19.7846H11.2588V20.4738C11.2588 21.4755 10.4472 22.2874 9.44593 22.2874H7.54839C6.54713 22.2874 5.73544 21.4755 5.73544 20.4738V19.7846Z" fill="url(#paint1_linear_605_2676)"/>
<path d="M6.62979 21.9972H10.3644V23.2909C10.3644 23.9587 9.82334 24.5 9.15581 24.5H7.83842C7.17095 24.5 6.62979 23.9587 6.62979 23.2909V21.9972Z" fill="url(#paint2_linear_605_2676)"/>
<path fill-rule="evenodd" clip-rule="evenodd" d="M16.1151 15.4429C14.8405 10.7881 10.5815 7.36749 5.52393 7.36749C3.60203 7.36749 1.79545 7.86147 0.224136 8.72939V12.2098C0.224136 15.8118 2.52434 18.8763 5.73544 20.0136V20.4738C5.73544 21.1401 6.09461 21.7224 6.62979 22.0377V23.2909C6.62979 23.9587 7.17096 24.5 7.83842 24.5H9.15582C9.82334 24.5 10.3644 23.9587 10.3644 23.2909V22.0377C10.8997 21.7224 11.2588 21.1401 11.2588 20.4738V20.0136C13.4473 19.2385 15.2126 17.5683 16.1151 15.4429Z" fill="url(#paint3_linear_605_2676)"/>
<path fill-rule="evenodd" clip-rule="evenodd" d="M14.137 18.2648C13.7318 13.6015 9.81929 9.94281 5.05258 9.94281C3.27936 9.94281 1.62435 10.4491 0.224136 11.3251V12.2098C0.224136 15.8118 2.52434 18.8763 5.73544 20.0136V20.4738C5.73544 21.1401 6.09461 21.7225 6.62979 22.0377V23.2909C6.62979 23.9587 7.17096 24.5 7.83842 24.5H9.15582C9.82334 24.5 10.3644 23.9587 10.3644 23.2909V22.0377C10.8997 21.7225 11.2588 21.1401 11.2588 20.4738V20.0136C12.3389 19.631 13.3159 19.0305 14.137 18.2648Z" fill="url(#paint4_linear_605_2676)"/>
<path fill-rule="evenodd" clip-rule="evenodd" d="M11.2679 20.0119C11.0961 16.2115 7.96176 13.1831 4.12033 13.1831C2.7852 13.1831 1.53547 13.549 0.465866 14.1859C1.13094 16.9017 3.1359 19.0913 5.73988 20.0136V20.4738C5.73988 21.1401 6.09905 21.7224 6.63426 22.0377V23.2909C6.63426 23.9587 7.17536 24.5 7.84288 24.5H9.16028C9.8278 24.5 10.3689 23.9587 10.3689 23.2909V22.0377C10.9041 21.7224 11.2633 21.1401 11.2633 20.4738V20.0136C11.2648 20.013 11.2664 20.0125 11.2679 20.0119Z" fill="url(#paint5_linear_605_2676)"/>
</g>
<defs>
<linearGradient id="paint0_linear_605_2676" x1="11.2649" y1="11.6355" x2="17.2195" y2="5.67703" gradientUnits="userSpaceOnUse">
<stop stop-color="#46FF47"/>
<stop offset="1" stop-color="#9CFF9D"/>
</linearGradient>
<linearGradient id="paint1_linear_605_2676" x1="11.2649" y1="11.6355" x2="17.2195" y2="5.677" gradientUnits="userSpaceOnUse">
<stop stop-color="#46FF47"/>
<stop offset="1" stop-color="#9CFF9D"/>
</linearGradient>
<linearGradient id="paint2_linear_605_2676" x1="11.2649" y1="11.6355" x2="17.2195" y2="5.67701" gradientUnits="userSpaceOnUse">
<stop stop-color="#46FF47"/>
<stop offset="1" stop-color="#9CFF9D"/>
</linearGradient>
<linearGradient id="paint3_linear_605_2676" x1="9.82665" y1="12.7781" x2="12.7589" y2="8.8859" gradientUnits="userSpaceOnUse">
<stop stop-color="#10D9ED"/>
<stop offset="1" stop-color="#10D9ED" stop-opacity="0.3"/>
</linearGradient>
<linearGradient id="paint4_linear_605_2676" x1="9.17395" y1="14.1625" x2="12.7518" y2="7.90956" gradientUnits="userSpaceOnUse">
<stop stop-color="#FA51D3"/>
<stop offset="0.958774" stop-color="#FA51D3" stop-opacity="0"/>
</linearGradient>
<linearGradient id="paint5_linear_605_2676" x1="6.43038" y1="19.7967" x2="9.40554" y2="12.1925" gradientUnits="userSpaceOnUse">
<stop stop-color="#FFE700"/>
<stop offset="1" stop-color="#FFE700" stop-opacity="0"/>
</linearGradient>
<clipPath id="clip0_605_2676">
<rect width="16.5517" height="24" fill="white" transform="translate(0.224136 0.5)"/>
</clipPath>
</defs>
</svg>
